<?xml version="1.0" encoding="utf-8"?>
<?xml-stylesheet type="text/xsl" href="rss1.xsl"?>
<rss version="2.0" xmlns:atom="http://www.w3.org/2005/Atom" xmlns:content="http://purl.org/rss/1.0/modules/content/" xmlns:dc="http://purl.org/dc/elements/1.1/" xmlns:media="http://search.yahoo.com/mrss/">
<channel>
 <title>Getty</title>
 <link>http://www.gettyimg.com/</link>
 <atom:link href="http://www.gettyimg.com/" rel="self" type="application/rss+xml" />

 
                <item>
                <title><![CDATA[【Music Videos】Britney Spears - Perfume [AVC]]]></title>
                <link><![CDATA[https://sharemania.us/threads/britney-spears-perfume-avc.237961/]]></link>
                <description><![CDATA[<article>
<blockquote class="messageText SelectQuoteContainer ugc baseHtml">
<img src="https://www.imgbly.com/ib/eooOP2iIpq.jpg" class="bbCodeImage LbImage" alt="[​IMG]" data-url="https://www.imgbly.com/ib/eooOP2iIpq.jpg" style=""> <br>
<div class="ToggleTriggerAnchor bbCodeSpoilerContainer">
<button type="button" class="button bbCodeSpoilerButton ToggleTrigger Tooltip JsOnly" data-target="> .SpoilerTarget"><span>Spoiler: <span class="SpoilerTitle">mediainfo</span></span></button>
<div class="SpoilerTarget bbCodeSpoilerText">General<br>
Complete name : H:\Britney Spears - Perfume.mp4<br>
Format : MPEG-4<br>
Format profile : Base Media<br>
Codec ID : isom (isom/iso2/avc1/mp41)<br>
File size : 483 MiB<br>
Duration : 4 min 33 s<br>
Overall bit rate mode : Variable<br>
Overall bit rate : 14.8 Mb/s<br>
Writing application : Lavf58.29.100<br>
<br>
Video<br>
ID : 1<br>
Format : AVC<br>
Format/Info : Advanced Video Codec<br>
Format profile : High 4:2:2@L4<br>
Format settings : CABAC / 4 Ref Frames<br>
Format settings, CABAC : Yes<br>
Format settings, Reference frames : 4 frames<br>
Codec ID : avc1<br>
Codec ID/Info : Advanced Video Coding<br>
Duration : 4 min 33 s<br>
Bit rate : 14.7 Mb/s<br>
Nominal bit rate : 16.0 Mb/s<br>
Width : 1 920 pixels<br>
Height : 1 080 pixels<br>
Display aspect ratio : 16:9<br>
Frame rate mode : Constant<br>
Frame rate : 23.976 (23976/1000) FPS<br>
Color space : YUV<br>
Chroma subsampling : 4:2:2<br>
Bit depth : 10 bits<br>
Scan type : Progressive<br>
Bits/(Pixel*Frame) : 0.296<br>
Stream size : 479 MiB (99%)<br>
Writing library : x264 core 157<br>
Encoding settings : cabac=1 / ref=3 / deblock=1:0:0 / analyse=0x3:0x113 / me=hex / subme=7 / psy=1 / psy_rd=1.00:0.00 / mixed_ref=1 / me_range=16 / chroma_me=1 / trellis=1 / 8x8dct=1 / cqm=0 / deadzone=21,11 / fast_pskip=1 / chroma_qp_offset=-2 / threads=6 / lookahead_threads=1 / sliced_threads=0 / nr=0 / decimate=1 / interlaced=0 / bluray_compat=0 / constrained_intra=0 / bframes=3 / b_pyramid=2 / b_adapt=1 / b_bias=0 / direct=1 / weightb=1 / open_gop=0 / weightp=2 / keyint=250 / keyint_min=23 / scenecut=40 / intra_refresh=0 / rc_lookahead=40 / rc=abr / mbtree=1 / bitrate=16000 / ratetol=1.0 / qcomp=0.60 / qpmin=0 / qpmax=81 / qpstep=4 / ip_ratio=1.40 / aq=1:1.00<br>
Language : English<br>
Codec configuration box : avcC<br>
<br>
Audio<br>
ID : 2<br>
Format : AAC LC<br>
Format/Info : Advanced Audio Codec Low Complexity<br>
Codec ID : mp4a-40-2<br>
Duration : 4 min 33 s<br>
Duration_LastFrame : -8 ms<br>
Bit rate mode : Variable<br>
Bit rate : 124 kb/s<br>
Maximum bit rate : 128 kb/s<br>
Channel(s) : 2 channels<br>
Channel layout : L R<br>
Sampling rate : 48.0 kHz<br>
Frame rate : 46.875 FPS (1024 SPF)<br>
Compression mode : Lossy<br>
Stream size : 4.03 MiB (1%)<br>
Language : English<br>
Default : Yes<br>
Alternate group : 1</div>
</div>
<div class="bbCodeBlock bbCodeVfcHH HiddenContent">
<div class="attribution type">Hidden Content:</div>
<blockquote>You must reply before you can see the hidden data contained here.</blockquote>
</div>
<div class="messageTextEndMarker">&nbsp;</div>
</blockquote>
</article>]]></description>
                <author><![CDATA[unknown8YThu]]></author>
                </item>

                </channel></rss>